<svg xmlns="http://www.w3.org/2000/svg" xmlns:xlink="http://www.w3.org/1999/xlink" width="25" height="25" viewBox="0 0 25 25">
  <defs>
    <clipPath id="clip-path">
      <rect id="Rectangle_61" data-name="Rectangle 61" width="25" height="25" transform="translate(521 692)" fill="none"/>
    </clipPath>
  </defs>
  <g id="Mask_Group_5" data-name="Mask Group 5" transform="translate(-521 -692)" clip-path="url(#clip-path)">
    <path id="trash" d="M7.989,11.93a.964.964,0,1,1,1.927,0v7.137a.964.964,0,1,1-1.927,0ZM20.929,7.89l-.991,13.066a4.535,4.535,0,0,1-1.288,2.869A3.949,3.949,0,0,1,15.826,25H6.671a3.947,3.947,0,0,1-2.82-1.176h0a4.539,4.539,0,0,1-1.29-2.869L1.575,7.89H0v-2.8c0-.675.332-.932.985-.932H5.611V2.2A2.2,2.2,0,0,1,7.806,0H14.7a2.2,2.2,0,0,1,2.189,2.2V4.152h4.751a1.259,1.259,0,0,1,.2.012.785.785,0,0,1,.659.718c0,.041,0,.077,0,.116V7.89ZM19,7.924H3.507l.968,12.889A2.608,2.608,0,0,0,5.2,22.461h0a2.034,2.034,0,0,0,1.463.61H15.82a2.047,2.047,0,0,0,1.463-.61,2.6,2.6,0,0,0,.73-1.648L19,7.935ZM14.445,4.152v-1.7H8.065v1.7ZM12.587,11.93a.964.964,0,1,1,1.927,0v7.137a.964.964,0,1,1-1.927,0V11.93Z" transform="translate(522.25 692)" fill="#d80000"/>
  </g>
</svg>
