<svg xmlns="http://www.w3.org/2000/svg" xmlns:xlink="http://www.w3.org/1999/xlink" width="25" height="25" viewBox="0 0 25 25">
  <defs>
    <clipPath id="clip-path">
      <rect id="Rectangle_63" data-name="Rectangle 63" width="25" height="25" transform="translate(569 699)" fill="none"/>
    </clipPath>
  </defs>
  <g id="Mask_Group_7" data-name="Mask Group 7" transform="translate(-569 -699)" clip-path="url(#clip-path)">
    <g id="edit-box" transform="translate(569 699.092)">
      <path id="Path_38" data-name="Path 38" d="M21.92.267A.893.893,0,0,0,21.25,0,.87.87,0,0,0,20.595.3L19.116,1.829l4.143,4L24.75,4.269A.915.915,0,0,0,25,3.6a.885.885,0,0,0-.279-.655L21.92.267ZM1.7,1.036H11.913V3.689H2.967A.32.32,0,0,0,2.651,4V21.85a.32.32,0,0,0,.315.315H20.813a.32.32,0,0,0,.315-.315v-8.6h2.653v9.87a1.709,1.709,0,0,1-1.7,1.7H1.7a1.709,1.709,0,0,1-1.7-1.7V2.735a1.685,1.685,0,0,1,.5-1.2,1.7,1.7,0,0,1,1.2-.5ZM14.165,15.274c-.543.181-1.1.348-1.646.531s-1.089.362-1.646.543c-1.3.419-2.008.655-2.163.7s-.055-.558.265-1.813l1.032-3.947.085-.087,4.073,4.073v0ZM11.6,9.632l6.395-6.641,4.143,3.988L15.671,13.7,11.6,9.632Z" fill-rule="evenodd"/>
    </g>
  </g>
</svg>
